<svg id="Layer_1" data-name="Layer 1" xmlns="http://www.w3.org/2000/svg" viewBox="0 0 475.93 174.52">
  <defs>
    <style>
      .cls-1 {
        fill: #fff;
      }

      .cls-2 {
        fill: #0773a3;
      }

      .cls-3 {
        fill: #e8e8e8;
      }
    </style>
  </defs>
  <title>LOGOTexto</title>
  <g>
    <path class="cls-1" d="M1.71,53.23H11.1l13.67,25,13.67-25h9.39V97.36H38.44V69.74L24.77,94.79,11.11,69.74V97.35H1.71V53.23Z" transform="translate(0 -0.04)"/>
    <path class="cls-1" d="M86.55,90.52H66.9L64,97.35H53.52L71.46,53.23H82L99.92,97.36H89.11Zm-3.13-8.26L76.87,66.32,70.32,82.55h13.1V82.27h0Z" transform="translate(0 -0.04)"/>
    <path class="cls-1" d="M103.63,75.15c0-12.53,10.82-22.77,23.34-22.77A23.19,23.19,0,0,1,144,59.78L137.22,66A14,14,0,0,0,127,61.2c-7.4,0-13.67,6.55-13.67,14.23S119.56,89.66,127,89.66a14.06,14.06,0,0,0,10.25-4.84L144,91.08A23.67,23.67,0,0,1,127,98.48C114.44,98.21,103.63,87.67,103.63,75.15Z" transform="translate(0 -0.04)"/>
    <path class="cls-1" d="M176.79,97.35l-10-14.23h-7.4V97.35H150V53.23h19.93c9.68,0,16.8,6.26,16.8,14.8,0,6.55-4,11.67-10,13.95l10.91,15.37H176.79ZM159.42,74.29h9.39c4.55,0,8-2.56,8-6.26s-3.13-6.26-8-6.26h-9.39V74.29Z" transform="translate(0 -0.04)"/>
    <path class="cls-1" d="M191.87,75.15c0-12.53,10.82-22.77,23.34-22.77,12.81,0,23.34,10.53,23.34,22.77,0,12.53-10.82,22.77-23.34,22.77A23.15,23.15,0,0,1,191.87,75.15Zm37.29,0c0-7.69-6.26-14.23-13.66-14.23s-13.66,6.55-13.66,14.23,6.26,14.23,13.66,14.23c7.4,0.29,13.67-6.54,13.67-14.23h0Z" transform="translate(0 -0.04)"/>
    <path class="cls-1" d="M255.36,61.77v9.68h22.2V80h-22.2V97.4H246V53.23h34.16v8.54H255.36Z" transform="translate(0 -0.04)"/>
    <path class="cls-1" d="M287,53.23h9.39V97.35H287V53.23Z" transform="translate(0 -0.04)"/>
    <path class="cls-1" d="M305.74,53.23h22.49c8,0,13.38,4.55,13.38,11.1,0,4.55-2.28,7.68-6.26,10,5.12,2.28,8,6.55,8,11.39,0,7.12-6,12-14.52,12H305.46V53.23h0.28Zm19.89,17.65c3.42,0,6-2,6-4.84s-2.56-4.84-6-4.84H315.14v9.68h10.49Zm1.43,18.5c3.7,0,6.55-2.28,6.55-5.41s-2.56-5.41-6.55-5.41h-12V89.38h12Z" transform="translate(0 -0.04)"/>
    <path class="cls-1" d="M376.63,97.35l-10-14.23h-7.12V97.35h-9.39V53.23H370c9.68,0,16.8,6.26,16.8,14.8,0,6.55-4,11.67-10,13.95l10.82,15.37h-11ZM359.55,74.29h9.39c4.55,0,8-2.56,8-6.26s-3.13-6.26-8-6.26h-9.39V74.29Z" transform="translate(0 -0.04)"/>
    <path class="cls-1" d="M423.31,90.52H403.63l-2.85,6.83H390.29l17.94-44.12h10.53l17.93,44.13H425.88Zm-3.13-8.26L413.63,66l-6.55,16.23h13.1Z" transform="translate(0 -0.04)"/>
    <path class="cls-1" d="M439.26,90.81l5.37-6.55A21.18,21.18,0,0,0,459.15,90c4.84,0,7.12-2.28,7.12-4.84,0-3.13-2.56-4-9.4-5.69-9.39-2-15.94-4.84-15.94-13.38,0-8.25,6.83-13.67,16.23-13.67a26.7,26.7,0,0,1,17.36,6l-4.84,6.83c-4-3.13-8.26-4.84-12.53-4.84-4,0-6.55,2-6.55,4.84,0,3.13,2.56,4.27,9.39,5.69,9.39,2,15.94,4.84,15.94,13.1,0,8.54-6.26,13.95-17.08,13.95A26.63,26.63,0,0,1,439.26,90.81Z" transform="translate(0 -0.04)"/>
  </g>
  <g>
    <path class="cls-2" d="M0,21.35C0,10,9.68.28,20.78,0.28A19.56,19.56,0,0,1,35.3,6.54L32.74,9.1a17.33,17.33,0,0,0-12-5.41c-9.11,0-17.08,8-17.08,17.36,0,9.68,7.69,17.65,17.08,17.65a16.21,16.21,0,0,0,12-5.41l2.56,2.56a21.21,21.21,0,0,1-14.52,6.26A20.5,20.5,0,0,1,0,21.35Z" transform="translate(0 -0.04)"/>
    <path class="cls-2" d="M70.63,32.16H47.26L43,41.84H38.72L56.94,1.13h4.27L79.14,41.84H74.87Zm-1.42-3.7-10-22.77-10,22.77h20Z" transform="translate(0 -0.04)"/>
    <path class="cls-2" d="M111.31,38.14v3.7H84.84V1.13h3.7v37h22.77Z" transform="translate(0 -0.04)"/>
    <path class="cls-2" d="M116.44,21.35c0-11.39,9.68-21.07,20.78-21.07a19.56,19.56,0,0,1,14.52,6.26L149.18,9.1a17.33,17.33,0,0,0-12-5.41c-9.11,0-17.08,8-17.08,17.36,0,9.68,7.69,17.65,17.08,17.65a16.21,16.21,0,0,0,12-5.41l2.56,2.56a21.22,21.22,0,0,1-14.52,6.26C126.11,42.41,116.44,33,116.44,21.35Z" transform="translate(0 -0.04)"/>
    <path class="cls-2" d="M158.85,25.33V1.13h3.7v24.2c0,8,5.41,13.66,12.81,13.66s12.81-5.69,12.81-13.66V1.13h3.7v24.2c0,10-6.83,17.08-16.51,17.08S158.85,35.58,158.85,25.33Z" transform="translate(0 -0.04)"/>
    <path class="cls-2" d="M227.46,38.14v3.7H201V1.13h3.7v37h22.78Z" transform="translate(0 -0.04)"/>
    <path class="cls-2" d="M263,32.16H239.7l-4.27,9.68h-4.27L249.09,1.13h4.27L271.3,41.84H267Zm-1.71-3.7-10-22.77-10,22.77h20Z" transform="translate(0 -0.04)"/>
    <path class="cls-2" d="M279,1.13h13.65c12.81,0,21.64,8.54,21.64,20.21s-8.81,20.5-21.64,20.5H279V1.13Zm13.65,37.3c10.53,0,17.93-7.12,17.93-16.8,0-10-7.4-16.8-17.93-16.8h-10v33.6h10Z" transform="translate(0 -0.04)"/>
    <path class="cls-2" d="M321.12,21.35C321.12,10,330.8.28,341.9,0.28c11.39,0,20.78,9.68,20.78,21.07s-9.39,21.07-20.78,21.07A21.14,21.14,0,0,1,321.12,21.35Zm37.86,0A17.38,17.38,0,0,0,341.9,4c-9.11,0-17.08,8-17.08,17.36C324.82,31,332.5,39,341.9,39S359,31,359,21.35h0Z" transform="translate(0 -0.04)"/>
    <path class="cls-2" d="M390.29,26.47l10.82,15.37h-4.27L386.31,26.75H374.63V41.84h-3.7V1.13h16.8c8.26,0,14.8,5.41,14.8,12.81C402,20.49,397.12,25.33,390.29,26.47ZM374.35,23h12.28c6.83,0,11.67-3.42,11.67-9.11s-4.88-9.09-11.67-9.09H374.35V23Z" transform="translate(0 -0.04)"/>
    <path class="cls-2" d="M437.83,32.16H414.49l-4.27,9.68H406L423.88,1.13h4.27l17.94,40.71h-4.27Zm-1.71-3.7-10-22.77-10,22.77h20Z" transform="translate(0 -0.04)"/>
  </g>
  <g>
    <path class="cls-2" d="M450.12,41.84v-8c0-7.37,5-12.67,11.79-12.67s11.79,5.3,11.79,12.67v8H450.12Zm21.51-8c0-6.19-4.12-10.31-9.73-10.31s-9.73,4.42-9.73,10.31v5.9h19.46v-5.9h0Z" transform="translate(0 -0.04)"/>
    <path class="cls-2" d="M452.19,14.14h8.55v-13h2.06v13h8.83V0h2.06v16.5H450.12V0h2.06v14.1h0Z" transform="translate(0 -0.04)"/>
  </g>
  <path class="cls-3" d="M185.94,120.73a17.51,17.51,0,0,0-12.46-5c-10.28,0-18.4,8.66-18.4,18.82a18.14,18.14,0,0,0,5.26,12.72c3.29,3.29,8.06,5.73,12.79,5.73,7.83,0,16.07-5.73,16.07-14.1H165.89v-4.66h28.68c0.12,6.09-.54,11.11-4.66,15.89a22.27,22.27,0,0,1-16.67,7.53,23.3,23.3,0,1,1-.62-46.6h0.92c7.89,0,14.28,3.52,19.06,9.74l-6.66-.11" transform="translate(0 -0.04)"/>
  <path class="cls-3" d="M296.78,137.26h4.85a21.21,21.21,0,0,1-5.44,12.92,22.37,22.37,0,0,1-16.72,7.52,23.3,23.3,0,1,1-.62-46.6h0.92c7.89,0,14.28,3.52,19.06,9.74l-6.66-.11a17.51,17.51,0,0,0-12.46-5c-10.28,0-18.4,8.66-18.4,18.82a18.15,18.15,0,0,0,5.32,12.74c3.29,3.29,8.07,5.73,12.79,5.73,7.83,0,16.48-6.52,17.27-14.1l0.13-1.68" transform="translate(0 -0.04)"/>
  <path class="cls-3" d="M150.63,167.18h0a7.32,7.32,0,0,1,13.26-4.26h-2.08a5.45,5.45,0,0,0-3.88-1.55,5.83,5.83,0,0,0-5.74,5.86" transform="translate(0 -0.04)"/>
  <path class="cls-3" d="M152.23,167.16A5.83,5.83,0,0,0,158,173a5.46,5.46,0,0,0,3.88-1.55h2.08a7.33,7.33,0,0,1-13.3-4.29" transform="translate(0 -0.04)"/>
  <path class="cls-3" d="M200.69,134.6l14.88,22.32h6.15L209.48,138.3c7.4-1.71,10.18-5.94,10.18-14,0-10.15-8.94-12.42-17.49-12.42h-6.54v45h5V116.54h1.49c6,0,12.47.72,12.47,8.12,0,7-4.25,10.56-14,9.94" transform="translate(0 -0.04)"/>
  <path class="cls-3" d="M251.72,144.14L257,156.92h5.59l-18.58-45.1-3.42.07-19,45h5.5l5.44-12.78h19.24m-2-4.66h-15.3l7.71-20Z" transform="translate(0 -0.04)"/>
  <polyline class="cls-3" points="301.66 111.85 325.03 111.85 325.03 116.51 306.68 116.51 306.68 131.87 324.49 131.87 324.49 136.53 306.68 136.53 306.68 152.23 325.03 152.23 325.03 156.89 301.66 156.89 301.66 111.85"/>
  <path class="cls-3" d="M168.93,174.52a4.7,4.7,0,1,0-4.68-4.72s0,0,0,0a4.66,4.66,0,0,0,4.64,4.68h0m0-8a3.3,3.3,0,1,1-3.17,3.43s0-.08,0-0.13a3.17,3.17,0,0,1,3-3.3h0.13Z" transform="translate(0 -0.04)"/>
  <path class="cls-3" d="M177.21,166.45h0a3,3,0,0,1,2.54-1.33c2.47,0,3,1.78,3,3.87v5.29h-1.52v-5c0-1.44-.11-2.73-1.88-2.73-2.09,0-2.22,1.93-2.22,3.53v4.23h-1.52V165.4h1.52v1.08" transform="translate(0 -0.04)"/>
  <path class="cls-3" d="M189.31,167.43a1.42,1.42,0,0,0-1.21-.91,1.08,1.08,0,0,0-1.1,1c0,0.82,1,1.12,2.07,1.56a2.71,2.71,0,0,1,2.07,2.56,2.91,2.91,0,0,1-2.92,2.9h-0.08a3.2,3.2,0,0,1-3.15-2.25l1.35-.57a1.9,1.9,0,0,0,1.82,1.42,1.36,1.36,0,0,0,1.44-1.28s0-.06,0-0.09c0-2-4-1.31-4-4.11a2.54,2.54,0,0,1,2.56-2.52h0.09a2.69,2.69,0,0,1,2.37,1.65l-1.27.66" transform="translate(0 -0.04)"/>
  <polyline class="cls-3" points="194.86 174.24 193.35 174.24 193.35 166.73 191.51 166.73 191.51 165.33 193.35 165.33 193.35 162.13 194.86 162.13 194.86 165.33 196.46 165.33 196.46 166.73 194.86 166.73 194.86 174.24"/>
  <path class="cls-3" d="M199.27,166.33h0a2.3,2.3,0,0,1,2-1.21,2.7,2.7,0,0,1,1.37.42l-0.72,1.39a1.47,1.47,0,0,0-.91-0.4c-1.67,0-1.74,2.14-1.74,3.3v4.45h-1.52v-8.91h1.52v1" transform="translate(0 -0.04)"/>
  <path class="cls-3" d="M205.58,170.33c0,1.5.17,2.79,2,2.79s2-1.29,2-2.79v-5h1.52v5.14c0,2.37-.89,4-3.53,4s-3.53-1.65-3.53-4v-5.14h1.52v5" transform="translate(0 -0.04)"/>
  <polyline class="cls-3" points="224.5 174.24 222.98 174.24 222.98 166.73 221.15 166.73 221.15 165.33 222.98 165.33 222.98 162.13 224.5 162.13 224.5 165.33 226.09 165.33 226.09 166.73 224.5 166.73 224.5 174.24"/>
  <path class="cls-3" d="M230.48,162a1.08,1.08,0,0,1-2.16,0h0a1.08,1.08,0,1,1,2.16,0m-1.85,3.33h1.52v8.91h-1.52v-8.91Z" transform="translate(0 -0.04)"/>
  <path class="cls-3" d="M236.31,174.52a4.7,4.7,0,1,0-4.68-4.72s0,0,0,0a4.66,4.66,0,0,0,4.64,4.68h0m0-8a3.3,3.3,0,1,1-3.17,3.43s0-.08,0-0.13a3.17,3.17,0,0,1,3-3.3h0.13Z" transform="translate(0 -0.04)"/>
  <path class="cls-3" d="M244.63,166.45h0a3,3,0,0,1,2.54-1.33c2.47,0,3,1.78,3,3.87v5.29h-1.52v-5c0-1.44-.11-2.73-1.88-2.73-2.08,0-2.22,1.93-2.22,3.53v4.23H243V165.4h1.6v1.08" transform="translate(0 -0.04)"/>
  <path class="cls-3" d="M260.53,168h1.15a5.16,5.16,0,0,0,3.39-.95,4,4,0,0,0,1.37-3.07,3.93,3.93,0,0,0-1.61-3.26,6,6,0,0,0-3.55-.76h-2.35v14.29h1.59V168m0-6.56h0.59c1.86,0,3.74.17,3.74,2.5,0,2-1.5,2.58-3.26,2.58h-1.06v-5.08h0Z" transform="translate(0 -0.04)"/>
  <path class="cls-3" d="M269.91,166.33h0a2.3,2.3,0,0,1,2-1.21,2.69,2.69,0,0,1,1.37.42l-0.72,1.39a1.47,1.47,0,0,0-.91-0.4c-1.67,0-1.74,2.14-1.74,3.3v4.45h-1.52v-8.91h1.52v1" transform="translate(0 -0.04)"/>
  <path class="cls-3" d="M278.71,174.52A4.7,4.7,0,1,0,274,169.8s0,0,0,0a4.66,4.66,0,0,0,4.64,4.68h0m0-8a3.3,3.3,0,1,1-3.17,3.43s0-.08,0-0.13a3.17,3.17,0,0,1,3-3.3h0.13Z" transform="translate(0 -0.04)"/>
  <path class="cls-3" d="M292.09,174.27h1.54V158.64h-1.52v8h0a3.85,3.85,0,0,0-3-1.52c-2.67,0-4.28,2.18-4.28,4.72a4.39,4.39,0,0,0,4.09,4.67h0.18a3.8,3.8,0,0,0,3.07-1.48h0v1.23m-2.92-7.75a3,3,0,0,1,3,3q0,0.11,0,.23c0,1.8-1,3.37-3,3.37s-2.92-1.65-2.92-3.39a3,3,0,0,1,2.79-3.19h0.13Z" transform="translate(0 -0.04)"/>
  <path class="cls-3" d="M297.82,170.33c0,1.5.17,2.79,2,2.79s2-1.29,2-2.79v-5h1.52v5.14c0,2.37-.89,4-3.53,4s-3.53-1.65-3.53-4v-5.14h1.52v5" transform="translate(0 -0.04)"/>
  <polyline class="cls-3" points="317.23 174.24 315.71 174.24 315.71 166.73 313.88 166.73 313.88 165.33 315.71 165.33 315.71 162.13 317.23 162.13 317.23 165.33 318.82 165.33 318.82 166.73 317.23 166.73 317.23 174.24"/>
  <path class="cls-3" d="M323.79,167.43a1.42,1.42,0,0,0-1.21-.91,1.08,1.08,0,0,0-1.1,1c0,0.82,1,1.12,2.07,1.56s2.07,1.06,2.07,2.56a2.92,2.92,0,0,1-2.94,2.9h-0.06a3.2,3.2,0,0,1-3.15-2.25l1.35-.57a1.9,1.9,0,0,0,1.82,1.42,1.36,1.36,0,0,0,1.44-1.28s0-.06,0-0.09c0-2-4-1.31-4-4.11a2.54,2.54,0,0,1,2.56-2.52h0.09a2.69,2.69,0,0,1,2.37,1.65l-1.27.66" transform="translate(0 -0.04)"/>
  <path class="cls-3" d="M304.68,169.83h0a4.73,4.73,0,0,1,8.56-2.75h-2a3.09,3.09,0,0,0-1.82-.56,3.33,3.33,0,0,0-3.27,3.35" transform="translate(0 -0.04)"/>
  <path class="cls-3" d="M306.14,169.84a3.33,3.33,0,0,0,3.27,3.35,3.1,3.1,0,0,0,1.85-.58h2a4.73,4.73,0,0,1-8.56-2.75" transform="translate(0 -0.04)"/>
  <path class="cls-3" d="M212.12,169.83h0a4.73,4.73,0,0,1,8.51-2.79h-2a3.09,3.09,0,0,0-1.82-.56,3.33,3.33,0,0,0-3.28,3.35" transform="translate(0 -0.04)"/>
  <path class="cls-3" d="M213.58,169.84a3.33,3.33,0,0,0,3.28,3.35,3.09,3.09,0,0,0,1.85-.58h2a4.73,4.73,0,0,1-8.56-2.75" transform="translate(0 -0.04)"/>
  <rect class="cls-1" x="414.87" y="110.79" width="3.42" height="9.86"/>
  <g>
    <path class="cls-1" d="M420.26,110.83h3.11v1.82h0a3.75,3.75,0,0,1,3.61-2,3.11,3.11,0,0,1,3.09,1.89,3.92,3.92,0,0,1,3.51-1.89c2.85,0,3.49,1.61,3.49,4.28v5.81H433.7v-5.3c0-1.11-.4-1.95-1.37-1.95-1.22,0-1.94,1-1.94,3.08v4.16H427v-5.3c0-1.11-.4-1.95-1.37-1.95-1.21,0-1.94,1-1.94,3.08v4.16h-3.41v-9.86Z" transform="translate(0 -0.04)"/>
    <path class="cls-1" d="M447,113.65a3.76,3.76,0,0,0-2.07-.55,2.54,2.54,0,0,0-2.62,2.72,2.66,2.66,0,0,0,2.81,2.59,4.73,4.73,0,0,0,2.13-.47l0.07,2.53a9.26,9.26,0,0,1-2.78.43c-3.27,0-5.75-1.89-5.75-5.15s2.49-5.16,5.75-5.16a6.12,6.12,0,0,1,2.71.55Z" transform="translate(0 -0.04)"/>
    <path class="cls-1" d="M467.68,113.65a3.76,3.76,0,0,0-2.07-.55,2.54,2.54,0,0,0-2.62,2.72,2.66,2.66,0,0,0,2.81,2.59,4.72,4.72,0,0,0,2.12-.47l0.08,2.53a9.29,9.29,0,0,1-2.79.43c-3.27,0-5.75-1.89-5.75-5.15s2.48-5.16,5.75-5.16a6.14,6.14,0,0,1,2.72.55Z" transform="translate(0 -0.04)"/>
    <path class="cls-1" d="M448.87,122.07a4.18,4.18,0,0,0,1.35.21,1.73,1.73,0,0,0,1.73-1.37l-4-10.08h3.68l2.13,6.43h0l2-6.43h3.42L455.61,120c-1,2.48-1.71,4.88-4.84,4.88a9.94,9.94,0,0,1-2.12-.23Z" transform="translate(0 -0.04)"/>
    <path class="cls-1" d="M397.51,112.52a3.73,3.73,0,0,1,5.85,0l5.24-3a9.77,9.77,0,0,0-16.34,0Z" transform="translate(0 -0.04)"/>
    <path class="cls-1" d="M399.9,118.49a3.7,3.7,0,0,1-2.92-5l-5.24-3a9.69,9.69,0,0,0,8.16,14.08v-6Z" transform="translate(0 -0.04)"/>
    <path class="cls-1" d="M409.14,110.43l-5.24,3a3.7,3.7,0,0,1-2.93,5v6a9.73,9.73,0,0,0,9.22-9.7,9.61,9.61,0,0,0-1.06-4.39" transform="translate(0 -0.04)"/>
    <path class="cls-1" d="M469.87,111.49a1.23,1.23,0,1,0,.87-0.36,1.19,1.19,0,0,0-.87.36M470,113.1a1.12,1.12,0,0,1,0-1.49,1,1,0,0,1,1.42,0,1.12,1.12,0,0,1,0,1.49,1,1,0,0,1-1.42,0m0.24,0h0.24v-0.64h0.2l0.4,0.64h0.25l-0.41-.64a0.35,0.35,0,0,0,.27-0.11,0.41,0.41,0,0,0,.1-0.29,0.4,0.4,0,0,0-.49-0.41h-0.55v1.44Zm0.24-1.26h0.28a0.41,0.41,0,0,1,.21,0,0.17,0.17,0,0,1,.08.16,0.2,0.2,0,0,1-.07.18,0.43,0.43,0,0,1-.22,0H470.5v-0.44Z" transform="translate(0 -0.04)"/>
  </g>
  <g>
    <path class="cls-1" d="M380.75,110.69l0.61-5.84h1.51a4.43,4.43,0,0,1,.58,0,1.93,1.93,0,0,1,.49.13,1,1,0,0,1,.38.26,1,1,0,0,1,.21.44,1.62,1.62,0,0,1,0,.36,2.52,2.52,0,0,1,0,.29,1.18,1.18,0,0,1-1,1.18,1,1,0,0,1,.72.43,1.36,1.36,0,0,1,.18.74c0,0.08,0,.16,0,0.24a1.86,1.86,0,0,1-.58,1.3,2,2,0,0,1-1.35.42h-1.79Zm1.36-.89h0.28a0.82,0.82,0,0,0,.62-0.2,1.11,1.11,0,0,0,.24-0.65c0-.08,0-0.16,0-0.23a0.85,0.85,0,0,0-.12-0.48,0.69,0.69,0,0,0-.59-0.21H382.3Zm0.27-2.61h0.25a0.77,0.77,0,0,0,.59-0.19,1.06,1.06,0,0,0,.22-0.6,1,1,0,0,0,0-.12,0.55,0.55,0,0,0-.15-0.41,0.8,0.8,0,0,0-.57-0.17h-0.2Z" transform="translate(0 -0.04)"/>
    <path class="cls-1" d="M385.72,110.69l0.25-2.37-0.75-3.47h1.19l0.38,1.9,0.72-1.9h1.16l-1.47,3.47-0.25,2.37h-1.22Z" transform="translate(0 -0.04)"/>
  </g>
</svg>
