<?xml version="1.0" encoding="utf-8"?>
<!-- Generator: Adobe Illustrator 16.0.0, SVG Export Plug-In . SVG Version: 6.00 Build 0)  -->
<!DOCTYPE svg PUBLIC "-//W3C//DTD SVG 1.1//EN" "http://www.w3.org/Graphics/SVG/1.1/DTD/svg11.dtd">
<svg version="1.1" id="Layer_1" xmlns="http://www.w3.org/2000/svg" xmlns:xlink="http://www.w3.org/1999/xlink" x="0px" y="0px"
	 width="500px" height="146.271px" viewBox="0 0 500 146.271" enable-background="new 0 0 500 146.271" xml:space="preserve">
<g>
	<path fill="#EA8823" d="M16.082,60.189h9.394l13.665,25.052l13.664-25.052h9.394v44.125h-9.394V76.7l-13.664,25.053L25.476,76.7
		v27.614h-9.394V60.189z"/>
	<path fill="#EA8823" d="M100.915,97.482H81.272l-2.847,6.832H67.893l17.935-44.125h10.532l17.935,44.125h-10.817L100.915,97.482z
		 M97.783,89.227l-6.547-15.942l-6.548,16.226h13.095V89.227z"/>
	<path fill="#EA8823" d="M117.995,82.109c0-12.525,10.818-22.774,23.344-22.774c6.832,0,12.81,2.847,17.081,7.402L151.586,73
		c-2.562-2.846-6.262-4.839-10.248-4.839c-7.402,0-13.665,6.546-13.665,14.233s6.263,14.233,13.665,14.233
		c3.985,0,7.686-1.993,10.248-4.838l6.833,6.262c-4.271,4.555-10.533,7.401-17.081,7.401
		C128.813,105.168,117.995,94.634,117.995,82.109z"/>
	<path fill="#EA8823" d="M191.156,104.314l-9.963-14.234h-7.401v14.234h-9.395V60.189h19.927c9.679,0,16.796,6.263,16.796,14.803
		c0,6.548-3.986,11.671-9.964,13.949l10.818,15.373H191.156z M173.792,81.255h9.394c4.555,0,7.971-2.563,7.971-6.263
		s-3.131-6.263-7.971-6.263h-9.394V81.255z"/>
	<path fill="#EA8823" d="M206.244,82.109c0-12.525,10.818-22.774,23.343-22.774c12.81,0,23.343,10.533,23.343,22.774
		c0,12.525-10.817,22.774-23.343,22.774C217.062,105.168,206.244,94.634,206.244,82.109z M243.537,82.109
		c0-7.687-6.263-14.233-13.665-14.233c-7.401,0-13.664,6.547-13.664,14.233c0,7.687,6.263,14.234,13.664,14.234
		C237.274,96.627,243.537,89.796,243.537,82.109z"/>
	<path fill="#EA8823" d="M269.727,68.73v9.678h22.205v8.542h-22.205v17.365h-9.395V60.189h34.161v8.541H269.727z"/>
	<path fill="#EA8823" d="M301.326,60.189h9.393v44.125h-9.393V60.189z"/>
	<path fill="#EA8823" d="M320.114,60.189h22.488c7.971,0,13.38,4.554,13.38,11.103c0,4.554-2.277,7.685-6.263,9.963
		c5.124,2.278,7.971,6.548,7.971,11.387c0,7.117-5.979,11.955-14.519,11.955h-23.343V60.189H320.114z M340.041,77.839
		c3.416,0,5.979-1.992,5.979-4.839c0-2.846-2.563-4.839-5.979-4.839h-10.533v9.678H340.041z M341.466,96.343
		c3.699,0,6.547-2.277,6.547-5.408s-2.563-5.409-6.547-5.409h-11.958v10.817H341.466z"/>
	<path fill="#EA8823" d="M390.997,104.314l-9.963-14.234h-7.117v14.234h-9.394V60.189h19.927c9.679,0,16.796,6.263,16.796,14.803
		c0,6.548-3.985,11.671-9.964,13.949l10.817,15.373H390.997z M373.917,81.255h9.395c4.555,0,7.971-2.563,7.971-6.263
		s-3.132-6.263-7.971-6.263h-9.395V81.255z"/>
	<path fill="#EA8823" d="M437.685,97.482h-19.643l-2.848,6.832h-10.531l17.934-44.125h10.533l17.934,44.125h-10.817L437.685,97.482z
		 M434.553,89.227L428.005,73l-6.547,16.227H434.553z"/>
	<path fill="#EA8823" d="M453.626,97.768l5.409-6.549c4.269,3.701,8.825,5.692,14.518,5.692c4.839,0,7.118-2.277,7.118-4.839
		c0-3.131-2.563-3.985-9.396-5.692c-9.394-1.992-15.941-4.839-15.941-13.38c0-8.255,6.832-13.665,16.227-13.665
		c7.117,0,12.81,2.278,17.365,5.979l-4.839,6.832c-3.986-3.131-8.257-4.839-12.526-4.839c-3.985,0-6.548,1.993-6.548,4.839
		c0,3.132,2.563,4.27,9.395,5.693c9.395,1.993,15.941,4.84,15.941,13.096c0,8.54-6.262,13.948-17.081,13.948
		C465.583,105.168,458.751,102.605,453.626,97.768z"/>
</g>
<g>
	<path fill="#0773A3" d="M14.374,28.306c0-11.387,9.679-21.065,20.781-21.065c5.694,0,10.818,2.276,14.518,6.263l-2.562,2.563
		c-3.131-3.132-7.401-5.409-11.956-5.409c-9.109,0-17.081,7.971-17.081,17.365c0,9.679,7.687,17.649,17.081,17.649
		c4.555,0,8.825-1.993,11.956-5.409l2.562,2.562c-3.7,3.701-9.109,6.263-14.518,6.263C23.768,49.372,14.374,39.978,14.374,28.306z"
		/>
	<path fill="#0773A3" d="M84.973,39.124H61.63l-4.27,9.678h-4.271L71.309,8.094h4.27l17.935,40.708h-4.271L84.973,39.124z
		 M83.55,35.423l-9.963-22.775l-9.964,22.775H83.55z"/>
	<path fill="#0773A3" d="M125.681,45.102v3.701H99.207V8.094h3.701v37.008H125.681z"/>
	<path fill="#0773A3" d="M130.806,28.306c0-11.387,9.679-21.065,20.781-21.065c5.694,0,10.818,2.276,14.519,6.263l-2.563,2.563
		c-3.13-3.132-7.401-5.409-11.956-5.409c-9.109,0-17.08,7.971-17.08,17.365c0,9.679,7.687,17.649,17.08,17.649
		c4.555,0,8.826-1.993,11.956-5.409l2.563,2.562c-3.701,3.701-9.11,6.263-14.519,6.263
		C140.484,49.372,130.806,39.978,130.806,28.306z"/>
	<path fill="#0773A3" d="M173.222,32.292V8.094h3.701v24.198c0,7.971,5.409,13.664,12.81,13.664c7.402,0,12.811-5.693,12.811-13.664
		V8.094h3.701v24.198c0,9.963-6.833,17.08-16.511,17.08C180.055,49.372,173.222,42.54,173.222,32.292z"/>
	<path fill="#0773A3" d="M241.829,45.102v3.701h-26.475V8.094h3.701v37.008H241.829z"/>
	<path fill="#0773A3" d="M277.412,39.124h-23.343l-4.27,9.678h-4.271l17.935-40.708h4.271l17.934,40.708h-4.271L277.412,39.124z
		 M275.705,35.423l-9.964-22.775l-9.964,22.775H275.705z"/>
	<path fill="#0773A3" d="M293.354,8.094h13.666c12.81,0,21.635,8.541,21.635,20.212c0,11.672-8.825,20.497-21.635,20.497h-13.666
		V8.094z M307.02,45.387c10.531,0,17.934-7.117,17.934-16.796c0-9.964-7.402-16.796-17.934-16.796h-9.964v33.592H307.02z"/>
	<path fill="#0773A3" d="M335.487,28.306c0-11.387,9.678-21.065,20.78-21.065c11.388,0,20.781,9.679,20.781,21.065
		s-9.394,21.066-20.781,21.066C345.165,49.372,335.487,39.978,335.487,28.306z M373.348,28.306c0-9.394-7.685-17.365-17.08-17.365
		c-9.109,0-17.081,7.971-17.081,17.365c0,9.679,7.687,17.65,17.081,17.65C365.661,45.956,373.348,37.985,373.348,28.306z"/>
	<path fill="#0773A3" d="M404.663,33.43l10.817,15.372h-4.271l-10.532-15.088h-11.674v15.088h-3.699V8.094H402.1
		c8.256,0,14.803,5.409,14.803,12.811C416.334,27.452,411.495,32.292,404.663,33.43z M388.721,30.015h12.24
		c6.833,0,11.672-3.417,11.672-9.11s-4.839-9.109-11.672-9.109h-12.24V30.015z"/>
	<path fill="#0773A3" d="M452.202,39.124H428.86l-4.271,9.678h-4.271l17.934-40.708h4.271l17.935,40.708h-4.271L452.202,39.124z
		 M450.495,35.423l-9.964-22.775l-9.963,22.775H450.495z"/>
</g>
<g>
	<path fill="#0773A3" d="M464.495,48.802v-7.958c0-7.366,5.011-12.671,11.789-12.671c6.776,0,11.788,5.305,11.788,12.671v7.958
		H464.495z M486.009,40.845c0-6.188-4.125-10.314-9.725-10.314s-9.727,4.422-9.727,10.314v5.895h19.451V40.845z"/>
	<path fill="#0773A3" d="M466.558,21.101h8.547V8.134h2.063v12.967h8.841V6.956h2.063v16.503h-23.577V6.956h2.063V21.101
		L466.558,21.101z"/>
</g>
<rect x="428.572" y="122.156" fill="#E6E6E5" width="3.529" height="10.06"/>
<g>
	<g>
		<path fill="#E6E6E5" d="M434.22,122.156h3.177v1.766l0,0c0.707-1.411,2.118-2.118,3.707-2.118c1.411,0,2.647,0.707,3.177,1.941
			c0.883-1.412,2.118-1.941,3.53-1.941c2.823,0,3.529,1.588,3.529,4.412v6h-3.529v-5.47c0-1.061-0.353-1.942-1.412-1.942
			c-1.235,0-1.942,1.059-1.942,3.177v4.235h-3.529v-5.47c0-1.061-0.353-1.942-1.412-1.942c-1.234,0-1.94,1.059-1.94,3.177v4.235
			h-3.53v-10.06H434.22z"/>
	</g>
	<g>
		<path fill="#E6E6E5" d="M461.399,124.979c-0.705-0.353-1.236-0.528-2.117-0.528c-1.59,0-2.648,1.06-2.648,2.823
			c0,1.588,1.413,2.647,2.824,2.647c0.705,0,1.589-0.176,2.117-0.53v2.648c-0.881,0.352-1.94,0.352-2.822,0.352
			c-3.354,0-5.824-1.94-5.824-5.295c0-3.352,2.471-5.293,5.824-5.293c1.059,0,1.941,0.176,2.822,0.529L461.399,124.979z"/>
	</g>
	<g>
		<path fill="#E6E6E5" d="M482.402,124.979c-0.706-0.353-1.235-0.528-2.119-0.528c-1.587,0-2.647,1.06-2.647,2.823
			c0,1.588,1.412,2.647,2.824,2.647c0.707,0,1.588-0.176,2.118-0.53v2.648c-0.882,0.352-1.941,0.352-2.822,0.352
			c-3.354,0-5.825-1.94-5.825-5.295c0-3.352,2.471-5.293,5.825-5.293c1.057,0,1.94,0.176,2.822,0.529L482.402,124.979z"/>
	</g>
	<g>
		<path fill="#E6E6E5" d="M463.34,133.629c0.529,0.177,0.884,0.177,1.413,0.177c0.882,0,1.588-0.531,1.765-1.414l-4.06-10.235h3.706
			l2.119,6.529l0,0l2.118-6.529h3.529l-3.707,9.354c-1.06,2.47-1.766,4.94-4.94,4.94c-0.707,0-1.414,0-2.119-0.177L463.34,133.629z"
			/>
	</g>
	<g>
		<path fill="#E6E6E5" d="M410.923,123.922c0.707-0.883,1.766-1.411,3.002-1.411s2.293,0.528,3,1.411l5.293-3.001
			c-1.763-2.646-4.763-4.412-8.293-4.412c-3.531,0-6.531,1.766-8.296,4.412L410.923,123.922z"/>
	</g>
	<g>
		<path fill="#E6E6E5" d="M413.396,129.922c-1.766-0.176-3.178-1.766-3.178-3.706c0-0.53,0.176-0.882,0.354-1.412l-5.294-3
			c-0.708,1.411-1.06,2.823-1.06,4.412c0,5.295,4.234,9.53,9.354,9.884v-6.178H413.396z"/>
	</g>
	<g>
		<path fill="#E6E6E5" d="M422.747,121.804l-5.292,3c0.176,0.353,0.352,0.882,0.352,1.412c0,1.94-1.411,3.53-3.176,3.706v6.178
			c5.294-0.354,9.354-4.589,9.354-9.884C423.808,124.627,423.455,123.039,422.747,121.804"/>
	</g>
	<g>
		<path fill="#E6E6E5" d="M484.696,122.862c-0.178,0.177-0.354,0.529-0.354,0.883c0,0.352,0.176,0.706,0.354,0.882
			c0.177,0.177,0.529,0.353,0.882,0.353s0.705-0.176,0.883-0.353c0.176-0.176,0.353-0.53,0.353-0.882
			c0-0.354-0.177-0.706-0.353-0.883c-0.178-0.177-0.53-0.352-0.883-0.352S484.873,122.686,484.696,122.862 M484.873,124.451
			c-0.177-0.177-0.354-0.529-0.354-0.706c0-0.354,0.178-0.53,0.354-0.706c0.175-0.177,0.353-0.354,0.705-0.354
			s0.529,0.177,0.705,0.354c0.178,0.176,0.354,0.53,0.354,0.706c0,0.352-0.176,0.529-0.354,0.706
			c-0.176,0.176-0.353,0.353-0.705,0.353S485.048,124.627,484.873,124.451 M485.048,124.451h0.178v-0.706h0.177l0.354,0.706h0.175
			l-0.353-0.706c0.178,0,0.178,0,0.353-0.176c0,0,0.177-0.178,0.177-0.354c0-0.353-0.177-0.353-0.529-0.353h-0.53V124.451
			L485.048,124.451z M485.402,123.215h0.354h0.175v0.177c0,0.178,0,0.178,0,0.178h-0.175h-0.354V123.215z"/>
	</g>
</g>
<g>
	<path fill="#E0E1E0" d="M388.404,128.649h2.946c1.037,0,1.768,0.663,1.768,1.6c0,0.682-0.337,1.075-0.916,1.412
		c0.739,0.373,1.169,0.954,1.169,1.654c0,1.03-0.795,1.76-1.908,1.76h-3.059V128.649z M391.163,131.371
		c0.711,0,1.216-0.431,1.216-1.029c0-0.598-0.505-1.029-1.216-1.029h-2.03v2.059H391.163z M391.276,134.411
		c0.795,0,1.356-0.495,1.356-1.188c0-0.692-0.562-1.188-1.356-1.188h-2.144v2.377H391.276z"/>
	<path fill="#E0E1E0" d="M394.571,136.601l0.169-0.599c0.168,0.083,0.364,0.12,0.57,0.12c0.309,0,0.515-0.103,0.702-0.43
		l0.279-0.599l-2.104-4.854h0.776l1.693,4.022l1.6-4.022h0.758l-2.207,5.378c-0.337,0.823-0.805,1.132-1.469,1.142
		C395.058,136.759,394.796,136.702,394.571,136.601z"/>
</g>
</svg>
