<svg id="Layer_1" data-name="Layer 1" xmlns="http://www.w3.org/2000/svg" viewBox="0 0 475.97 174.55">
  <defs>
    <style>
      .cls-1 {
        fill: #fff;
      }

      .cls-2 {
        fill: #0773a3;
      }

      .cls-3 {
        fill: #e8e8e8;
      }
    </style>
  </defs>
  <title>LOGOTexto</title>
  <g>
    <path class="cls-1" d="M16.08,60.19h9.39L39.14,85.24,52.81,60.19H62.2v44.13H52.81V76.7L39.14,101.75,25.48,76.7v27.61H16.08V60.19Z" transform="translate(-14.37 -6.96)"/>
    <path class="cls-1" d="M100.92,97.48H81.27l-2.85,6.83H67.89L85.83,60.19H96.36l17.93,44.13H103.48Zm-3.13-8.26L91.24,73.28,84.69,89.51h13.1V89.23Z" transform="translate(-14.37 -6.96)"/>
    <path class="cls-1" d="M118,82.11c0-12.53,10.82-22.77,23.34-22.77a23.19,23.19,0,0,1,17.08,7.4L151.59,73a14.05,14.05,0,0,0-10.25-4.84c-7.4,0-13.67,6.55-13.67,14.23s6.26,14.23,13.67,14.23a14.06,14.06,0,0,0,10.25-4.84l6.83,6.26a23.67,23.67,0,0,1-17.08,7.4C128.81,105.17,118,94.63,118,82.11Z" transform="translate(-14.37 -6.96)"/>
    <path class="cls-1" d="M191.16,104.31l-10-14.23h-7.4v14.23h-9.4V60.19h19.93c9.68,0,16.8,6.26,16.8,14.8,0,6.55-4,11.67-10,13.95L202,104.31H191.16ZM173.79,81.25h9.39c4.55,0,8-2.56,8-6.26s-3.13-6.26-8-6.26h-9.39V81.25Z" transform="translate(-14.37 -6.96)"/>
    <path class="cls-1" d="M206.24,82.11c0-12.53,10.82-22.77,23.34-22.77,12.81,0,23.34,10.53,23.34,22.77,0,12.53-10.82,22.77-23.34,22.77A23.15,23.15,0,0,1,206.24,82.11Zm37.29,0c0-7.69-6.26-14.23-13.66-14.23s-13.66,6.55-13.66,14.23,6.26,14.23,13.66,14.23C237.27,96.63,243.54,89.8,243.54,82.11Z" transform="translate(-14.37 -6.96)"/>
    <path class="cls-1" d="M269.73,68.73v9.68h22.2V87h-22.2v17.36h-9.39V60.19h34.16v8.54H269.73Z" transform="translate(-14.37 -6.96)"/>
    <path class="cls-1" d="M301.33,60.19h9.39v44.12h-9.39V60.19Z" transform="translate(-14.37 -6.96)"/>
    <path class="cls-1" d="M320.11,60.19H342.6c8,0,13.38,4.55,13.38,11.1,0,4.55-2.28,7.68-6.26,10,5.12,2.28,8,6.55,8,11.39,0,7.12-6,12-14.52,12H319.83V60.19h0.29ZM340,77.84c3.42,0,6-2,6-4.84s-2.56-4.84-6-4.84H329.51v9.68H340Zm1.43,18.5c3.7,0,6.55-2.28,6.55-5.41s-2.56-5.41-6.55-5.41h-12V96.34h12Z" transform="translate(-14.37 -6.96)"/>
    <path class="cls-1" d="M391,104.31L381,90.08h-7.12v14.23h-9.39V60.19h19.93c9.68,0,16.8,6.26,16.8,14.8,0,6.55-4,11.67-10,13.95l10.82,15.37H391ZM373.92,81.25h9.39c4.55,0,8-2.56,8-6.26s-3.13-6.26-8-6.26h-9.39V81.25Z" transform="translate(-14.37 -6.96)"/>
    <path class="cls-1" d="M437.68,97.48H418l-2.85,6.83H404.66L422.6,60.19h10.53l17.93,44.13H440.25Zm-3.13-8.26L428,73l-6.55,16.23h13.1Z" transform="translate(-14.37 -6.96)"/>
    <path class="cls-1" d="M453.63,97.77L459,91.22a21.18,21.18,0,0,0,14.52,5.69c4.84,0,7.12-2.28,7.12-4.84,0-3.13-2.56-4-9.4-5.69-9.39-2-15.94-4.84-15.94-13.38,0-8.25,6.83-13.67,16.23-13.67a26.7,26.7,0,0,1,17.36,6l-4.84,6.83c-4-3.13-8.26-4.84-12.53-4.84-4,0-6.55,2-6.55,4.84,0,3.13,2.56,4.27,9.39,5.69,9.39,2,15.94,4.84,15.94,13.1,0,8.54-6.26,13.95-17.08,13.95A26.63,26.63,0,0,1,453.63,97.77Z" transform="translate(-14.37 -6.96)"/>
  </g>
  <g>
    <path class="cls-2" d="M14.37,28.31c0-11.39,9.68-21.07,20.78-21.07A19.56,19.56,0,0,1,49.67,13.5l-2.56,2.56a17.33,17.33,0,0,0-12-5.41c-9.11,0-17.08,8-17.08,17.36,0,9.68,7.69,17.65,17.08,17.65a16.21,16.21,0,0,0,12-5.41l2.56,2.56a21.21,21.21,0,0,1-14.52,6.26C23.77,49.37,14.37,40,14.37,28.31Z" transform="translate(-14.37 -6.96)"/>
    <path class="cls-2" d="M85,39.12H61.63L57.36,48.8H53.09L71.31,8.09h4.27L93.51,48.8H89.24Zm-1.42-3.7-10-22.77-10,22.77H83.55Z" transform="translate(-14.37 -6.96)"/>
    <path class="cls-2" d="M125.68,45.1v3.7H99.21V8.09h3.7v37h22.77Z" transform="translate(-14.37 -6.96)"/>
    <path class="cls-2" d="M130.81,28.31c0-11.39,9.68-21.07,20.78-21.07a19.56,19.56,0,0,1,14.52,6.26l-2.56,2.56a17.33,17.33,0,0,0-12-5.41c-9.11,0-17.08,8-17.08,17.36,0,9.68,7.69,17.65,17.08,17.65a16.21,16.21,0,0,0,12-5.41l2.56,2.56a21.22,21.22,0,0,1-14.52,6.26C140.48,49.37,130.81,40,130.81,28.31Z" transform="translate(-14.37 -6.96)"/>
    <path class="cls-2" d="M173.22,32.29V8.09h3.7v24.2c0,8,5.41,13.66,12.81,13.66s12.81-5.69,12.81-13.66V8.09h3.7v24.2c0,10-6.83,17.08-16.51,17.08S173.22,42.54,173.22,32.29Z" transform="translate(-14.37 -6.96)"/>
    <path class="cls-2" d="M241.83,45.1v3.7H215.35V8.09h3.7v37h22.77Z" transform="translate(-14.37 -6.96)"/>
    <path class="cls-2" d="M277.41,39.12H254.07L249.8,48.8h-4.27L263.46,8.09h4.27L285.67,48.8H281.4Zm-1.71-3.7-10-22.77-10,22.77H275.7Z" transform="translate(-14.37 -6.96)"/>
    <path class="cls-2" d="M293.35,8.09H307c12.81,0,21.64,8.54,21.64,20.21S319.83,48.8,307,48.8H293.35V8.09ZM307,45.39c10.53,0,17.93-7.12,17.93-16.8,0-10-7.4-16.8-17.93-16.8h-10V45.39h10Z" transform="translate(-14.37 -6.96)"/>
    <path class="cls-2" d="M335.49,28.31c0-11.39,9.68-21.07,20.78-21.07,11.39,0,20.78,9.68,20.78,21.07s-9.39,21.07-20.78,21.07A21.14,21.14,0,0,1,335.49,28.31Zm37.86,0a17.38,17.38,0,0,0-17.08-17.36c-9.11,0-17.08,8-17.08,17.36C339.19,38,346.87,46,356.27,46S373.35,38,373.35,28.31Z" transform="translate(-14.37 -6.96)"/>
    <path class="cls-2" d="M404.66,33.43L415.48,48.8h-4.27L400.68,33.71H389V48.8h-3.7V8.09h16.8c8.26,0,14.8,5.41,14.8,12.81C416.33,27.45,411.49,32.29,404.66,33.43ZM388.72,30H401c6.83,0,11.67-3.42,11.67-9.11S407.79,11.8,401,11.8H388.72V30Z" transform="translate(-14.37 -6.96)"/>
    <path class="cls-2" d="M452.2,39.12H428.86l-4.27,9.68h-4.27L438.25,8.09h4.27L460.46,48.8h-4.27Zm-1.71-3.7-10-22.77-10,22.77h19.93Z" transform="translate(-14.37 -6.96)"/>
  </g>
  <g>
    <path class="cls-2" d="M464.49,48.8v-8c0-7.37,5-12.67,11.79-12.67s11.79,5.3,11.79,12.67v8H464.49Zm21.51-8c0-6.19-4.12-10.31-9.73-10.31s-9.73,4.42-9.73,10.31v5.9H486v-5.9h0Z" transform="translate(-14.37 -6.96)"/>
    <path class="cls-2" d="M466.56,21.1h8.55v-13h2.06v13H486V7h2.06v16.5H464.49V7h2.06V21.1h0Z" transform="translate(-14.37 -6.96)"/>
  </g>
  <path class="cls-3" d="M200.31,127.69a17.51,17.51,0,0,0-12.46-5c-10.28,0-18.4,8.66-18.4,18.82a18.14,18.14,0,0,0,5.26,12.72c3.29,3.29,8.06,5.73,12.79,5.73,7.83,0,16.07-5.73,16.07-14.1H180.26v-4.66h28.68c0.12,6.09-.54,11.11-4.66,15.89a22.27,22.27,0,0,1-16.67,7.53,23.3,23.3,0,1,1,.3-46.59c7.89,0,14.28,3.52,19.06,9.74l-6.66-.11" transform="translate(-14.37 -6.96)"/>
  <path class="cls-3" d="M311.15,144.22H316a21.21,21.21,0,0,1-5.44,12.92,22.37,22.37,0,0,1-16.72,7.52,23.3,23.3,0,1,1,.3-46.59c7.89,0,14.28,3.52,19.06,9.74l-6.66-.11a17.51,17.51,0,0,0-12.46-5c-10.28,0-18.4,8.66-18.4,18.82A18.15,18.15,0,0,0,281,154.26c3.29,3.29,8.07,5.73,12.79,5.73,7.83,0,16.48-6.52,17.27-14.1l0.13-1.68" transform="translate(-14.37 -6.96)"/>
  <path class="cls-3" d="M165,174.14v0a7.32,7.32,0,0,1,13.26-4.26l-2.08,0a5.45,5.45,0,0,0-3.88-1.55,5.83,5.83,0,0,0-5.74,5.86" transform="translate(-14.37 -6.96)"/>
  <path class="cls-3" d="M166.6,174.12a5.83,5.83,0,0,0,5.74,5.86,5.46,5.46,0,0,0,3.88-1.55l2.08,0A7.33,7.33,0,0,1,165,174.14" transform="translate(-14.37 -6.96)"/>
  <path class="cls-3" d="M215.06,141.56l14.88,22.32h6.15l-12.24-18.62c7.4-1.71,10.18-5.94,10.18-14,0-10.15-8.94-12.42-17.49-12.42H210v45h5V123.5h1.49c6,0,12.47.72,12.47,8.12,0,7-4.25,10.56-14,9.94" transform="translate(-14.37 -6.96)"/>
  <path class="cls-3" d="M266.09,151.1l5.32,12.78H277l-18.58-45.1-3.42.07-19,45h5.5l5.44-12.78h19.24m-2-4.66H248.88l7.71-20Z" transform="translate(-14.37 -6.96)"/>
  <polyline class="cls-3" points="301.66 111.89 325.03 111.89 325.03 116.55 306.68 116.55 306.68 131.91 324.49 131.91 324.49 136.57 306.68 136.57 306.68 152.27 325.03 152.27 325.03 156.93 301.66 156.93 301.66 111.89"/>
  <path class="cls-3" d="M183.3,181.48a4.7,4.7,0,1,0-4.68-4.68,4.66,4.66,0,0,0,4.68,4.68m0-8a3.3,3.3,0,1,1-3.17,3.3A3.17,3.17,0,0,1,183.3,173.48Z" transform="translate(-14.37 -6.96)"/>
  <path class="cls-3" d="M191.58,173.41h0a3,3,0,0,1,2.54-1.33c2.47,0,3,1.78,3,3.87v5.29h-1.52v-5c0-1.44-.11-2.73-1.88-2.73-2.09,0-2.22,1.93-2.22,3.53v4.23h-1.52v-8.91h1.52v1.08" transform="translate(-14.37 -6.96)"/>
  <path class="cls-3" d="M203.68,174.39a1.42,1.42,0,0,0-1.21-.91,1.08,1.08,0,0,0-1.1,1c0,0.82,1,1.12,2.07,1.56a2.71,2.71,0,0,1,2.07,2.56,2.91,2.91,0,0,1-3,2.9,3.2,3.2,0,0,1-3.15-2.25l1.35-.57a1.9,1.9,0,0,0,1.82,1.42,1.36,1.36,0,0,0,1.44-1.37c0-2-4-1.31-4-4.11a2.54,2.54,0,0,1,2.65-2.52,2.69,2.69,0,0,1,2.37,1.65l-1.27.66" transform="translate(-14.37 -6.96)"/>
  <polyline class="cls-3" points="194.86 174.28 193.35 174.28 193.35 166.77 191.51 166.77 191.51 165.37 193.35 165.37 193.35 162.17 194.86 162.17 194.86 165.37 196.46 165.37 196.46 166.77 194.86 166.77 194.86 174.28"/>
  <path class="cls-3" d="M213.64,173.29h0a2.3,2.3,0,0,1,2-1.21,2.7,2.7,0,0,1,1.37.42l-0.72,1.39a1.47,1.47,0,0,0-.91-0.4c-1.67,0-1.74,2.14-1.74,3.3v4.45h-1.52v-8.91h1.52v1" transform="translate(-14.37 -6.96)"/>
  <path class="cls-3" d="M219.95,177.29c0,1.5.17,2.79,2,2.79s2-1.29,2-2.79v-5h1.52v5.14c0,2.37-.89,4-3.53,4s-3.53-1.65-3.53-4v-5.14h1.52v5" transform="translate(-14.37 -6.96)"/>
  <polyline class="cls-3" points="224.5 174.28 222.98 174.28 222.98 166.77 221.15 166.77 221.15 165.37 222.98 165.37 222.98 162.17 224.5 162.17 224.5 165.37 226.09 165.37 226.09 166.77 224.5 166.77 224.5 174.28"/>
  <path class="cls-3" d="M244.85,169a1.08,1.08,0,0,1-2.16,0,1.08,1.08,0,0,1,2.16,0M243,172.33h1.52v8.91H243v-8.91Z" transform="translate(-14.37 -6.96)"/>
  <path class="cls-3" d="M250.68,181.48A4.7,4.7,0,1,0,246,176.8a4.66,4.66,0,0,0,4.68,4.68m0-8a3.3,3.3,0,1,1-3.17,3.3A3.17,3.17,0,0,1,250.68,173.48Z" transform="translate(-14.37 -6.96)"/>
  <path class="cls-3" d="M259,173.41h0a3,3,0,0,1,2.54-1.33c2.47,0,3,1.78,3,3.87v5.29h-1.52v-5c0-1.44-.11-2.73-1.88-2.73-2.08,0-2.22,1.93-2.22,3.53v4.23h-1.52v-8.91H259v1.08" transform="translate(-14.37 -6.96)"/>
  <path class="cls-3" d="M274.9,175h1.15a5.16,5.16,0,0,0,3.39-.95,4,4,0,0,0,1.37-3.07,3.93,3.93,0,0,0-1.61-3.26,6,6,0,0,0-3.55-.76H273.3v14.29h1.59V175m0-6.56h0.59c1.86,0,3.74.17,3.74,2.5,0,2-1.5,2.58-3.26,2.58H274.9v-5.08Z" transform="translate(-14.37 -6.96)"/>
  <path class="cls-3" d="M284.28,173.29h0a2.3,2.3,0,0,1,2-1.21,2.69,2.69,0,0,1,1.37.42l-0.72,1.39a1.47,1.47,0,0,0-.91-0.4c-1.67,0-1.74,2.14-1.74,3.3v4.45h-1.52v-8.91h1.52v1" transform="translate(-14.37 -6.96)"/>
  <path class="cls-3" d="M293.08,181.48a4.7,4.7,0,1,0-4.68-4.68,4.66,4.66,0,0,0,4.68,4.68m0-8a3.3,3.3,0,1,1-3.17,3.3A3.17,3.17,0,0,1,293.08,173.48Z" transform="translate(-14.37 -6.96)"/>
  <path class="cls-3" d="M306.46,181.23H308V165.6h-1.52v8h0a3.85,3.85,0,0,0-3.05-1.52c-2.67,0-4.28,2.18-4.28,4.72a4.39,4.39,0,0,0,4.27,4.68,3.8,3.8,0,0,0,3.07-1.48h0v1.23m-2.92-7.75a3,3,0,0,1,3,3.22c0,1.8-1,3.37-3,3.37s-2.92-1.65-2.92-3.39A3,3,0,0,1,303.54,173.48Z" transform="translate(-14.37 -6.96)"/>
  <path class="cls-3" d="M312.19,177.29c0,1.5.17,2.79,2,2.79s2-1.29,2-2.79v-5h1.52v5.14c0,2.37-.89,4-3.53,4s-3.53-1.65-3.53-4v-5.14h1.52v5" transform="translate(-14.37 -6.96)"/>
  <polyline class="cls-3" points="317.23 174.28 315.71 174.28 315.71 166.77 313.88 166.77 313.88 165.37 315.71 165.37 315.71 162.17 317.23 162.17 317.23 165.37 318.82 165.37 318.82 166.77 317.23 166.77 317.23 174.28"/>
  <path class="cls-3" d="M338.16,174.39a1.42,1.42,0,0,0-1.21-.91,1.08,1.08,0,0,0-1.1,1c0,0.82,1,1.12,2.07,1.56s2.07,1.06,2.07,2.56a2.92,2.92,0,0,1-3,2.9,3.2,3.2,0,0,1-3.15-2.25l1.35-.57a1.9,1.9,0,0,0,1.82,1.42,1.36,1.36,0,0,0,1.44-1.37c0-2-4-1.31-4-4.11a2.54,2.54,0,0,1,2.65-2.52,2.69,2.69,0,0,1,2.37,1.65l-1.27.66" transform="translate(-14.37 -6.96)"/>
  <path class="cls-3" d="M319.05,176.79v0a4.73,4.73,0,0,1,8.56-2.75h-2a3.09,3.09,0,0,0-1.82-.56,3.33,3.33,0,0,0-3.27,3.35" transform="translate(-14.37 -6.96)"/>
  <path class="cls-3" d="M320.51,176.8a3.33,3.33,0,0,0,3.27,3.35,3.1,3.1,0,0,0,1.85-.58l2,0a4.73,4.73,0,0,1-8.56-2.75" transform="translate(-14.37 -6.96)"/>
  <path class="cls-3" d="M226.49,176.79v0A4.73,4.73,0,0,1,235,174h-2a3.09,3.09,0,0,0-1.82-.56,3.33,3.33,0,0,0-3.28,3.35" transform="translate(-14.37 -6.96)"/>
  <path class="cls-3" d="M227.95,176.8a3.33,3.33,0,0,0,3.28,3.35,3.09,3.09,0,0,0,1.85-.58l2,0a4.73,4.73,0,0,1-8.56-2.75" transform="translate(-14.37 -6.96)"/>
</svg>
