<?xml version="1.0" encoding="utf-8"?>
<!-- Generator: Adobe Illustrator 19.2.1, SVG Export Plug-In . SVG Version: 6.00 Build 0)  -->
<svg version="1.1" id="Capa_1" xmlns="http://www.w3.org/2000/svg" xmlns:xlink="http://www.w3.org/1999/xlink" x="0px" y="0px"
	 viewBox="0 0 612 792" style="enable-background:new 0 0 612 792;" xml:space="preserve">
<style type="text/css">
	.st0{fill:#222C30;}
	.st1{fill:#EB8723;}
	.st2{fill:#0072A2;}
	.st3{fill:#E6E6E6;}
	.st4{fill:#E0E0E0;}
</style>
<g>
	<g>
		<path class="st0" d="M36.5,49.8v689.9c0,21.9,17.9,39.8,39.8,39.8H537c21.9,0,39.8-17.9,39.8-39.8V49.8c0-22-17.9-39.8-39.8-39.8
			H76.3C54.4,10,36.5,27.8,36.5,49.8z M159.4,711.4h-41.2c-6.8,0-12.2-5.4-12.2-12.2V658c0-6.8,5.4-12.2,12.2-12.2h41.2
			c6.8,0,12.2,5.4,12.2,12.2v41.2C171.6,706,166.2,711.4,159.4,711.4z M159.4,605.8h-41.2c-6.8,0-12.2-5.4-12.2-12.2v-41.4
			c0-6.8,5.4-12.2,12.2-12.2h41.2c6.8,0,12.2,5.4,12.2,12.2v41.2C171.6,600.1,166.2,605.8,159.4,605.8z M159.4,500.1h-41.2
			c-6.8,0-12.2-5.4-12.2-12.2v-41.2c0-6.8,5.4-12.2,12.2-12.2h41.2c6.8,0,12.2,5.4,12.2,12.2v41.2
			C171.6,494.4,166.2,500.1,159.4,500.1z M159.4,394.2h-41.2c-6.8,0-12.2-5.4-12.2-12.2v-41.2c0-6.8,5.4-12.2,12.2-12.2h41.2
			c6.8,0,12.2,5.4,12.2,12.2V382C171.6,388.8,166.2,394.2,159.4,394.2z M261.4,711.4h-41.2c-6.8,0-12.2-5.4-12.2-12.2V658
			c0-6.8,5.4-12.2,12.2-12.2h41.2c6.8,0,12.2,5.4,12.2,12.2v41.2C273.9,706,268.2,711.4,261.4,711.4z M261.4,605.8h-41.2
			c-6.8,0-12.2-5.4-12.2-12.2v-41.4c0-6.8,5.4-12.2,12.2-12.2h41.2c6.8,0,12.2,5.4,12.2,12.2v41.2
			C273.9,600.1,268.2,605.8,261.4,605.8z M261.4,500.1h-41.2c-6.8,0-12.2-5.4-12.2-12.2v-41.2c0-6.8,5.4-12.2,12.2-12.2h41.2
			c6.8,0,12.2,5.4,12.2,12.2v41.2C273.9,494.4,268.2,500.1,261.4,500.1z M261.4,394.2h-41.2c-6.8,0-12.2-5.4-12.2-12.2v-41.2
			c0-6.8,5.4-12.2,12.2-12.2h41.2c6.8,0,12.2,5.4,12.2,12.2V382C273.9,388.8,268.2,394.2,261.4,394.2z M363.7,711.4h-41.2
			c-6.8,0-12.2-5.4-12.2-12.2V658c0-6.8,5.4-12.2,12.2-12.2h41.2c6.8,0,12.2,5.4,12.2,12.2v41.2C375.9,706,370.5,711.4,363.7,711.4z
			 M363.7,605.8h-41.2c-6.8,0-12.2-5.4-12.2-12.2v-41.4c0-6.8,5.4-12.2,12.2-12.2h41.2c6.8,0,12.2,5.4,12.2,12.2v41.2
			C375.9,600.1,370.5,605.8,363.7,605.8z M363.7,500.1h-41.2c-6.8,0-12.2-5.4-12.2-12.2v-41.2c0-6.8,5.4-12.2,12.2-12.2h41.2
			c6.8,0,12.2,5.4,12.2,12.2v41.2C375.9,494.4,370.5,500.1,363.7,500.1z M363.7,394.2h-41.2c-6.8,0-12.2-5.4-12.2-12.2v-41.2
			c0-6.8,5.4-12.2,12.2-12.2h41.2c6.8,0,12.2,5.4,12.2,12.2V382C375.9,388.8,370.5,394.2,363.7,394.2z M495.2,711.4H454
			c-6.8,0-12.2-5.4-12.2-12.2V552.1c0-6.8,5.4-12.2,12.2-12.2h41.2c6.8,0,12.2,5.4,12.2,12.2v147.1C507.4,706,502,711.4,495.2,711.4
			z M495.2,500.1H454c-6.8,0-12.2-5.4-12.2-12.2v-41.2c0-6.8,5.4-12.2,12.2-12.2h41.2c6.8,0,12.2,5.4,12.2,12.2v41.2
			C507.4,494.4,502,500.1,495.2,500.1z M495.2,394.2H454c-6.8,0-12.2-5.4-12.2-12.2v-41.2c0-6.8,5.4-12.2,12.2-12.2h41.2
			c6.8,0,12.2,5.4,12.2,12.2V382C507.4,388.8,502,394.2,495.2,394.2z M482.5,220.2H130.9c-13.8,0-24.9-11.1-24.9-24.9V103
			c0-13.8,11.1-24.9,24.9-24.9h351.9c13.8,0,24.9,11.1,24.9,24.9v92.3C507.4,209.1,496.3,220.2,482.5,220.2z"/>
	</g>
</g>
<g>
	<path class="st1" d="M118,142.3h7.5l10.9,19.9l10.9-19.9h7.5v35.1h-7.5v-21.9l-10.9,19.9l-10.9-19.9v21.9H118
		C118,177.3,118,142.3,118,142.3z"/>
	<path class="st1" d="M185.4,171.9h-15.6l-2.3,5.4h-8.4l14.3-35.1h8.4l14.3,35.1h-8.6L185.4,171.9z M182.9,165.3l-5.2-12.7
		l-5.2,12.9h10.4V165.3z"/>
	<path class="st1" d="M199,159.7c0-10,8.6-18.1,18.6-18.1c5.4,0,10.2,2.3,13.6,5.9l-5.4,5c-2-2.3-5-3.8-8.1-3.8
		c-5.9,0-10.9,5.2-10.9,11.3c0,6.1,5,11.3,10.9,11.3c3.2,0,6.1-1.6,8.1-3.8l5.4,5c-3.4,3.6-8.4,5.9-13.6,5.9
		C207.6,178,199,169.6,199,159.7z"/>
	<path class="st1" d="M257.1,177.3l-7.9-11.3h-5.9v11.3h-7.5v-35.1h15.8c7.7,0,13.4,5,13.4,11.8c0,5.2-3.2,9.3-7.9,11.1l8.6,12.2
		L257.1,177.3L257.1,177.3z M243.3,159h7.5c3.6,0,6.3-2,6.3-5c0-2.9-2.5-5-6.3-5h-7.5L243.3,159L243.3,159z"/>
	<path class="st1" d="M269.1,159.7c0-10,8.6-18.1,18.6-18.1c10.2,0,18.6,8.4,18.6,18.1c0,10-8.6,18.1-18.6,18.1
		C277.7,178,269.1,169.6,269.1,159.7z M298.8,159.7c0-6.1-5-11.3-10.9-11.3c-5.9,0-10.9,5.2-10.9,11.3s5,11.3,10.9,11.3
		C293.8,171.2,298.8,165.8,298.8,159.7z"/>
	<path class="st1" d="M319.6,149v7.7h17.6v6.8h-17.6v13.8h-7.5v-35.1h27.2v6.8L319.6,149L319.6,149z"/>
	<path class="st1" d="M344.7,142.3h7.5v35.1h-7.5V142.3z"/>
	<path class="st1" d="M359.6,142.3h17.9c6.3,0,10.6,3.6,10.6,8.8c0,3.6-1.8,6.1-5,7.9c4.1,1.8,6.3,5.2,6.3,9.1
		c0,5.7-4.8,9.5-11.5,9.5h-18.6v-35.3L359.6,142.3L359.6,142.3z M375.5,156.3c2.7,0,4.8-1.6,4.8-3.8s-2-3.8-4.8-3.8h-8.4v7.7
		L375.5,156.3L375.5,156.3z M376.6,171c2.9,0,5.2-1.8,5.2-4.3s-2-4.3-5.2-4.3h-9.5v8.6H376.6z"/>
	<path class="st1" d="M416,177.3l-7.9-11.3h-5.7v11.3h-7.5v-35.1h15.8c7.7,0,13.4,5,13.4,11.8c0,5.2-3.2,9.3-7.9,11.1l8.6,12.2
		L416,177.3L416,177.3z M402.4,159h7.5c3.6,0,6.3-2,6.3-5c0-2.9-2.5-5-6.3-5h-7.5V159z"/>
	<path class="st1" d="M453.1,171.9h-15.6l-2.3,5.4h-8.4l14.3-35.1h8.4l14.3,35.1h-8.6L453.1,171.9z M450.6,165.3l-5.2-12.9
		l-5.2,12.9H450.6z"/>
	<path class="st1" d="M465.8,172.1l4.3-5.2c3.4,2.9,7,4.5,11.5,4.5c3.8,0,5.7-1.8,5.7-3.8c0-2.5-2-3.2-7.5-4.5
		c-7.5-1.6-12.7-3.8-12.7-10.6c0-6.6,5.4-10.9,12.9-10.9c5.7,0,10.2,1.8,13.8,4.8l-3.8,5.4c-3.2-2.5-6.6-3.8-10-3.8
		c-3.2,0-5.2,1.6-5.2,3.8c0,2.5,2,3.4,7.5,4.5c7.5,1.6,12.7,3.8,12.7,10.4c0,6.8-5,11.1-13.6,11.1C475.3,178,469.8,176,465.8,172.1z
		"/>
</g>
<g>
	<path class="st2" d="M116.6,116.9c0-9.1,7.7-16.7,16.5-16.7c4.5,0,8.6,1.8,11.5,5l-2,2c-2.5-2.5-5.9-4.3-9.5-4.3
		c-7.2,0-13.6,6.3-13.6,13.8c0,7.7,6.1,14,13.6,14c3.6,0,7-1.6,9.5-4.3l2,2c-2.9,2.9-7.2,5-11.5,5
		C124.1,133.7,116.6,126.2,116.6,116.9z"/>
	<path class="st2" d="M172.7,125.5h-18.6l-3.4,7.7h-3.4l14.5-32.4h3.4l14.3,32.4h-3.4L172.7,125.5z M171.6,122.6l-7.9-18.1
		l-7.9,18.1C155.7,122.6,171.6,122.6,171.6,122.6z"/>
	<path class="st2" d="M205.1,130.3v2.9h-21v-32.4h2.9v29.4L205.1,130.3L205.1,130.3z"/>
	<path class="st2" d="M209.1,116.9c0-9.1,7.7-16.7,16.5-16.7c4.5,0,8.6,1.8,11.5,5l-2,2c-2.5-2.5-5.9-4.3-9.5-4.3
		c-7.2,0-13.6,6.3-13.6,13.8c0,7.7,6.1,14,13.6,14c3.6,0,7-1.6,9.5-4.3l2,2c-2.9,2.9-7.2,5-11.5,5
		C216.8,133.7,209.1,126.2,209.1,116.9z"/>
	<path class="st2" d="M242.9,120.1v-19.2h2.9v19.2c0,6.3,4.3,10.9,10.2,10.9s10.2-4.5,10.2-10.9v-19.2h2.9v19.2
		c0,7.9-5.4,13.6-13.1,13.6C248.3,133.7,242.9,128.2,242.9,120.1z"/>
	<path class="st2" d="M297.4,130.3v2.9h-21v-32.4h2.9v29.4L297.4,130.3L297.4,130.3z"/>
	<path class="st2" d="M325.7,125.5h-18.6l-3.4,7.7h-3.4l14.3-32.4h3.4l14.3,32.4h-3.4L325.7,125.5z M324.3,122.6l-7.9-18.1
		l-7.9,18.1C308.5,122.6,324.3,122.6,324.3,122.6z"/>
	<path class="st2" d="M338.4,100.8h10.9c10.2,0,17.2,6.8,17.2,16.1s-7,16.3-17.2,16.3h-10.9V100.8z M349.2,130.5
		c8.4,0,14.3-5.7,14.3-13.4c0-7.9-5.9-13.4-14.3-13.4h-7.9v26.7H349.2z"/>
	<path class="st2" d="M371.9,116.9c0-9.1,7.7-16.7,16.5-16.7c9.1,0,16.5,7.7,16.5,16.7s-7.5,16.7-16.5,16.7
		C379.5,133.7,371.9,126.2,371.9,116.9z M401.9,116.9c0-7.5-6.1-13.8-13.6-13.8c-7.2,0-13.6,6.3-13.6,13.8c0,7.7,6.1,14,13.6,14
		C395.8,130.9,401.9,124.6,401.9,116.9z"/>
	<path class="st2" d="M426.8,121l8.6,12.2H432l-8.4-12h-9.3v12h-2.9v-32.4h13.4c6.6,0,11.8,4.3,11.8,10.2
		C436.1,116.2,432.3,120.1,426.8,121z M414.2,118.3h9.7c5.4,0,9.3-2.7,9.3-7.2c0-4.5-3.8-7.2-9.3-7.2h-9.7L414.2,118.3L414.2,118.3z
		"/>
	<path class="st2" d="M464.6,125.5h-18.6l-3.4,7.7h-3.4l14.3-32.4h3.4l14.3,32.4h-3.4L464.6,125.5z M463.3,122.6l-7.9-18.1
		l-7.9,18.1C447.4,122.6,463.3,122.6,463.3,122.6z"/>
</g>
<g>
	<path class="st2" d="M474.4,133.2v-6.3c0-5.9,4-10.1,9.4-10.1c5.4,0,9.4,4.2,9.4,10.1v6.3H474.4z M491.5,126.9
		c0-4.9-3.3-8.2-7.7-8.2s-7.7,3.5-7.7,8.2v4.7h15.5L491.5,126.9L491.5,126.9z"/>
	<path class="st2" d="M476,111.2h6.8v-10.3h1.6v10.3h7V99.9h1.6v13.1h-18.7V99.9h1.6L476,111.2L476,111.2z"/>
</g>
<rect x="445.8" y="191.5" class="st3" width="2.8" height="8"/>
<g>
	<g>
		<path class="st3" d="M450.3,191.5h2.5v1.4l0,0c0.6-1.1,1.7-1.7,2.9-1.7c1.1,0,2.1,0.6,2.5,1.5c0.7-1.1,1.7-1.5,2.8-1.5
			c2.2,0,2.8,1.3,2.8,3.5v4.8h-2.8v-4.3c0-0.8-0.3-1.5-1.1-1.5c-1,0-1.5,0.8-1.5,2.5v3.4h-2.8v-4.3c0-0.8-0.3-1.5-1.1-1.5
			c-1,0-1.5,0.8-1.5,2.5v3.4h-2.8v-8L450.3,191.5L450.3,191.5z"/>
	</g>
	<g>
		<path class="st3" d="M471.9,193.8c-0.6-0.3-1-0.4-1.7-0.4c-1.3,0-2.1,0.8-2.1,2.2c0,1.3,1.1,2.1,2.2,2.1c0.6,0,1.3-0.1,1.7-0.4
			v2.1c-0.7,0.3-1.5,0.3-2.2,0.3c-2.7,0-4.6-1.5-4.6-4.2s2-4.2,4.6-4.2c0.8,0,1.5,0.1,2.2,0.4L471.9,193.8z"/>
	</g>
	<g>
		<path class="st3" d="M488.6,193.8c-0.6-0.3-1-0.4-1.7-0.4c-1.3,0-2.1,0.8-2.1,2.2c0,1.3,1.1,2.1,2.2,2.1c0.6,0,1.3-0.1,1.7-0.4
			v2.1c-0.7,0.3-1.5,0.3-2.2,0.3c-2.7,0-4.6-1.5-4.6-4.2s2-4.2,4.6-4.2c0.8,0,1.5,0.1,2.2,0.4L488.6,193.8z"/>
	</g>
	<g>
		<path class="st3" d="M473.5,200.6c0.4,0.1,0.7,0.1,1.1,0.1c0.7,0,1.3-0.4,1.4-1.1l-3.2-8.1h2.9l1.7,5.2l0,0l1.7-5.2h2.8L479,199
			c-0.8,2-1.4,3.9-3.9,3.9c-0.6,0-1.1,0-1.7-0.1L473.5,200.6z"/>
	</g>
	<g>
		<path class="st3" d="M431.8,192.9c0.6-0.7,1.4-1.1,2.4-1.1s1.8,0.4,2.4,1.1l4.2-2.4c-1.4-2.1-3.8-3.5-6.6-3.5
			c-2.8,0-5.2,1.4-6.6,3.5L431.8,192.9z"/>
	</g>
	<g>
		<path class="st3" d="M433.8,197.7c-1.4-0.1-2.5-1.4-2.5-2.9c0-0.4,0.1-0.7,0.3-1.1l-4.2-2.4c-0.6,1.1-0.8,2.2-0.8,3.5
			c0,4.2,3.4,7.6,7.4,7.9v-4.9L433.8,197.7L433.8,197.7z"/>
	</g>
	<g>
		<path class="st3" d="M441.2,191.2l-4.2,2.4c0.1,0.3,0.3,0.7,0.3,1.1c0,1.5-1.1,2.8-2.5,2.9v4.9c4.2-0.3,7.4-3.6,7.4-7.9
			C442.1,193.5,441.8,192.2,441.2,191.2"/>
	</g>
	<g>
		<path class="st3" d="M490.5,192.1c-0.1,0.1-0.3,0.4-0.3,0.7s0.1,0.6,0.3,0.7c0.1,0.1,0.4,0.3,0.7,0.3s0.6-0.1,0.7-0.3
			c0.1-0.1,0.3-0.4,0.3-0.7s-0.1-0.6-0.3-0.7c-0.1-0.1-0.4-0.3-0.7-0.3S490.6,191.9,490.5,192.1 M490.6,193.3
			c-0.1-0.1-0.3-0.4-0.3-0.6c0-0.3,0.1-0.4,0.3-0.6s0.3-0.3,0.6-0.3s0.4,0.1,0.6,0.3c0.1,0.1,0.3,0.4,0.3,0.6c0,0.3-0.1,0.4-0.3,0.6
			s-0.3,0.3-0.6,0.3S490.7,193.5,490.6,193.3 M490.7,193.3h0.1v-0.6h0.1l0.3,0.6h0.1l-0.3-0.6c0.1,0,0.1,0,0.3-0.1
			c0,0,0.1-0.1,0.1-0.3c0-0.3-0.1-0.3-0.4-0.3h-0.4L490.7,193.3L490.7,193.3z M491,192.4h0.3h0.1v0.1c0,0.1,0,0.1,0,0.1h-0.1H491
			V192.4z"/>
	</g>
</g>
<g>
	<path class="st4" d="M413.9,196.7h2.3c0.8,0,1.4,0.5,1.4,1.3c0,0.5-0.3,0.9-0.7,1.1c0.6,0.3,0.9,0.8,0.9,1.3c0,0.8-0.6,1.4-1.5,1.4
		h-2.4L413.9,196.7L413.9,196.7z M416.1,198.8c0.6,0,1-0.3,1-0.8s-0.4-0.8-1-0.8h-1.6v1.6L416.1,198.8L416.1,198.8z M416.2,201.3
		c0.6,0,1.1-0.4,1.1-0.9s-0.4-0.9-1.1-0.9h-1.7v1.9L416.2,201.3L416.2,201.3z"/>
	<path class="st4" d="M418.8,203l0.1-0.5c0.1,0.1,0.3,0.1,0.5,0.1c0.2,0,0.4-0.1,0.6-0.3l0.2-0.5l-1.7-3.9h0.6l1.3,3.2l1.3-3.2h0.6
		l-1.8,4.3c-0.3,0.7-0.6,0.9-1.2,0.9C419.2,203.1,419,203.1,418.8,203z"/>
</g>
<g>
	<path class="st1" d="M375.9,340.8c0-6.8-5.4-12.2-12.2-12.2h-41.2c-6.8,0-12.2,5.4-12.2,12.2V382c0,6.8,5.4,12.2,12.2,12.2h41.2
		c6.8,0,12.2-5.4,12.2-12.2V340.8z"/>
	<path class="st4" d="M363.7,645.8h-41.2c-6.8,0-12.2,5.4-12.2,12.2v41.2c0,6.8,5.4,12.2,12.2,12.2h41.2c6.8,0,12.2-5.4,12.2-12.2
		V658C375.9,651.2,370.5,645.8,363.7,645.8z"/>
	<path class="st4" d="M375.9,446.7c0-6.8-5.4-12.2-12.2-12.2h-41.2c-6.8,0-12.2,5.4-12.2,12.2v41.2c0,6.8,5.4,12.2,12.2,12.2h41.2
		c6.8,0,12.2-5.7,12.2-12.2V446.7z"/>
	<path class="st4" d="M375.9,552.1c0-6.8-5.4-12.2-12.2-12.2h-41.2c-6.8,0-12.2,5.4-12.2,12.2v41.4c0,6.8,5.4,12.2,12.2,12.2h41.2
		c6.8,0,12.2-5.7,12.2-12.4V552.1z"/>
	<path class="st2" d="M507.4,340.8c0-6.8-5.4-12.2-12.2-12.2H454c-6.8,0-12.2,5.4-12.2,12.2V382c0,6.8,5.4,12.2,12.2,12.2h41.2
		c6.8,0,12.2-5.4,12.2-12.2V340.8z"/>
	<path class="st2" d="M507.4,446.7c0-6.8-5.4-12.2-12.2-12.2H454c-6.8,0-12.2,5.4-12.2,12.2v41.2c0,6.8,5.4,12.2,12.2,12.2h41.2
		c6.8,0,12.2-5.7,12.2-12.2V446.7z"/>
	<path class="st2" d="M495.2,539.9H454c-6.8,0-12.2,5.4-12.2,12.2v147.1c0,6.8,5.4,12.2,12.2,12.2h41.2c6.8,0,12.2-5.4,12.2-12.2
		V552.1C507.4,545.3,502,539.9,495.2,539.9z"/>
	<path class="st1" d="M171.6,340.8c0-6.8-5.4-12.2-12.2-12.2h-41.2c-6.8,0-12.2,5.4-12.2,12.2V382c0,6.8,5.4,12.2,12.2,12.2h41.2
		c6.8,0,12.2-5.4,12.2-12.2V340.8z"/>
	<path class="st4" d="M159.4,645.8h-41.2c-6.8,0-12.2,5.4-12.2,12.2v41.2c0,6.8,5.4,12.2,12.2,12.2h41.2c6.8,0,12.2-5.4,12.2-12.2
		V658C171.6,651.2,166.2,645.8,159.4,645.8z"/>
	<path class="st4" d="M171.6,552.1c0-6.8-5.4-12.2-12.2-12.2h-41.2c-6.8,0-12.2,5.4-12.2,12.2v41.4c0,6.8,5.4,12.2,12.2,12.2h41.2
		c6.8,0,12.2-5.7,12.2-12.4V552.1z"/>
	<path class="st4" d="M273.6,552.1c0-6.8-5.4-12.2-12.2-12.2h-41.2c-6.8,0-12.2,5.4-12.2,12.2v41.4c0,6.8,5.4,12.2,12.2,12.2h41.2
		c6.8,0,12.4-5.7,12.2-12.4V552.1z"/>
	<path class="st4" d="M171.6,446.7c0-6.8-5.4-12.2-12.2-12.2h-41.2c-6.8,0-12.2,5.4-12.2,12.2v41.2c0,6.8,5.4,12.2,12.2,12.2h41.2
		c6.8,0,12.2-5.7,12.2-12.2V446.7z"/>
	<path class="st1" d="M273.6,340.8c0-6.8-5.4-12.2-12.2-12.2h-41.2c-6.8,0-12.2,5.4-12.2,12.2V382c0,6.8,5.4,12.2,12.2,12.2h41.2
		c6.8,0,12.4-5.4,12.2-12.2V340.8z"/>
	<path class="st4" d="M261.4,645.8h-41.2c-6.8,0-12.2,5.4-12.2,12.2v41.2c0,6.8,5.4,12.2,12.2,12.2h41.2c6.8,0,12.4-5.4,12.2-12.2
		V658C273.6,651.2,268.2,645.8,261.4,645.8z"/>
	<path class="st4" d="M273.6,446.7c0-6.8-5.4-12.2-12.2-12.2h-41.2c-6.8,0-12.2,5.4-12.2,12.2v41.2c0,6.8,5.4,12.2,12.2,12.2h41.2
		c6.8,0,12.4-5.7,12.2-12.2V446.7z"/>
</g>
</svg>
